<svg 
 xmlns="http://www.w3.org/2000/svg"
 xmlns:xlink="http://www.w3.org/1999/xlink"
 width="509px" height="159px">
<path fill-rule="evenodd"  stroke-width="2px" stroke="rgb(87, 121, 162)" fill="rgb(0, 61, 104)"
 d="M485.791,153.000 L485.791,100.200 L414.191,100.200 L414.191,153.000 L396.591,153.000 L396.591,58.600 C396.591,51.269 397.991,44.369 400.791,37.900 C403.591,31.434 407.391,25.800 412.191,21.000 C416.991,16.200 422.622,12.400 429.091,9.600 C435.557,6.800 442.522,5.400 449.991,5.400 C457.322,5.400 464.222,6.800 470.691,9.600 C477.157,12.400 482.791,16.200 487.591,21.000 C492.391,25.800 496.191,31.434 498.991,37.900 C501.791,44.369 503.191,51.269 503.191,58.600 L503.191,153.000 L485.791,153.000 ZM485.791,58.600 C485.791,53.669 484.857,49.034 482.991,44.700 C481.122,40.369 478.557,36.569 475.291,33.300 C472.022,30.034 468.222,27.469 463.891,25.600 C459.557,23.734 454.922,22.800 449.991,22.800 C445.057,22.800 440.422,23.734 436.091,25.600 C431.757,27.469 427.957,30.034 424.691,33.300 C421.422,36.569 418.857,40.369 416.991,44.700 C415.122,49.034 414.191,53.669 414.191,58.600 L414.191,82.800 L485.791,82.800 L485.791,58.600 ZM363.194,7.000 L380.594,7.000 L380.594,153.000 L363.194,153.000 L363.194,7.000 ZM335.995,72.500 C333.460,75.900 330.460,78.869 326.995,81.400 C323.526,83.934 319.726,85.800 315.595,87.000 C317.860,92.200 320.195,97.634 322.595,103.300 C324.995,108.969 327.395,114.634 329.795,120.300 C332.195,125.969 334.595,131.600 336.995,137.200 C339.395,142.800 341.660,148.069 343.795,153.000 L324.995,153.000 L297.395,88.800 L270.995,88.800 L270.995,153.000 L253.595,153.000 L253.595,7.000 L303.195,7.000 C308.795,7.000 314.095,8.069 319.095,10.200 C324.095,12.334 328.426,15.269 332.095,19.000 C335.760,22.734 338.660,27.069 340.795,32.000 C342.926,36.934 343.995,42.269 343.995,48.000 C343.995,52.669 343.295,57.069 341.895,61.200 C340.495,65.334 338.526,69.100 335.995,72.500 ZM324.795,38.900 C323.595,36.034 321.926,33.534 319.795,31.400 C317.660,29.269 315.160,27.600 312.295,26.400 C309.426,25.200 306.395,24.600 303.195,24.600 L270.995,24.600 L270.995,71.200 L303.195,71.200 C306.395,71.200 309.426,70.600 312.295,69.400 C315.160,68.200 317.660,66.534 319.795,64.400 C321.926,62.269 323.595,59.800 324.795,57.000 C325.995,54.200 326.595,51.200 326.595,48.000 C326.595,44.800 325.995,41.769 324.795,38.900 ZM219.997,137.600 C215.197,142.400 209.563,146.200 203.097,149.000 C196.628,151.800 189.728,153.200 182.397,153.200 L132.797,152.600 L132.797,7.200 L182.397,7.200 C189.728,7.200 196.628,8.600 203.097,11.400 C209.563,14.200 215.197,18.000 219.997,22.800 C224.797,27.600 228.597,33.234 231.397,39.700 C234.197,46.169 235.597,53.069 235.597,60.400 L235.597,100.000 C235.597,107.334 234.197,114.234 231.397,120.700 C228.597,127.169 224.797,132.800 219.997,137.600 ZM218.197,60.400 C218.197,55.469 217.263,50.834 215.397,46.500 C213.528,42.169 210.963,38.400 207.697,35.200 C204.428,32.000 200.628,29.469 196.297,27.600 C191.963,25.734 187.328,24.800 182.397,24.800 L150.197,24.800 L150.197,135.800 L182.397,135.800 C187.328,135.800 191.963,134.869 196.297,133.000 C200.628,131.134 204.428,128.569 207.697,125.300 C210.963,122.034 213.528,118.234 215.397,113.900 C217.263,109.569 218.197,104.934 218.197,100.000 L218.197,60.400 ZM94.400,100.200 L22.800,100.200 L22.800,153.000 L5.200,153.000 L5.200,58.600 C5.200,51.269 6.600,44.369 9.400,37.900 C12.200,31.434 16.000,25.800 20.800,21.000 C25.600,16.200 31.231,12.400 37.700,9.600 C44.166,6.800 51.131,5.400 58.600,5.400 C65.931,5.400 72.831,6.800 79.300,9.600 C85.766,12.400 91.400,16.200 96.200,21.000 C101.000,25.800 104.800,31.434 107.600,37.900 C110.400,44.369 111.800,51.269 111.800,58.600 L111.800,153.000 L94.400,153.000 L94.400,100.200 ZM94.400,58.600 C94.400,53.669 93.466,49.034 91.600,44.700 C89.731,40.369 87.166,36.569 83.900,33.300 C80.631,30.034 76.831,27.469 72.500,25.600 C68.166,23.734 63.531,22.800 58.600,22.800 C53.666,22.800 49.031,23.734 44.700,25.600 C40.366,27.469 36.566,30.034 33.300,33.300 C30.031,36.569 27.466,40.369 25.600,44.700 C23.731,49.034 22.800,53.669 22.800,58.600 L22.800,82.800 L94.400,82.800 L94.400,58.600 Z"/>
</svg>