<svg 
 xmlns="http://www.w3.org/2000/svg"
 xmlns:xlink="http://www.w3.org/1999/xlink"
 width="499px" height="149px">
<path fill-rule="evenodd"  fill="rgb(255, 255, 255)"
 d="M480.791,148.000 L480.791,95.200 L409.191,95.200 L409.191,148.000 L391.591,148.000 L391.591,53.600 C391.591,46.269 392.991,39.369 395.791,32.900 C398.591,26.434 402.391,20.800 407.191,16.000 C411.991,11.200 417.622,7.400 424.091,4.600 C430.557,1.800 437.522,0.400 444.991,0.400 C452.322,0.400 459.222,1.800 465.691,4.600 C472.157,7.400 477.791,11.200 482.591,16.000 C487.391,20.800 491.191,26.434 493.991,32.900 C496.791,39.369 498.191,46.269 498.191,53.600 L498.191,148.000 L480.791,148.000 ZM480.791,53.600 C480.791,48.669 479.857,44.034 477.991,39.700 C476.122,35.369 473.557,31.569 470.291,28.300 C467.022,25.034 463.222,22.469 458.891,20.600 C454.557,18.734 449.922,17.800 444.991,17.800 C440.057,17.800 435.422,18.734 431.091,20.600 C426.757,22.469 422.957,25.034 419.691,28.300 C416.422,31.569 413.857,35.369 411.991,39.700 C410.122,44.034 409.191,48.669 409.191,53.600 L409.191,77.800 L480.791,77.800 L480.791,53.600 ZM358.194,2.000 L375.594,2.000 L375.594,148.000 L358.194,148.000 L358.194,2.000 ZM330.995,67.500 C328.460,70.900 325.460,73.869 321.995,76.400 C318.526,78.934 314.726,80.800 310.595,82.000 C312.860,87.200 315.195,92.634 317.595,98.300 C319.995,103.969 322.395,109.634 324.795,115.300 C327.195,120.969 329.595,126.600 331.995,132.200 C334.395,137.800 336.660,143.069 338.795,148.000 L319.995,148.000 L292.395,83.800 L265.995,83.800 L265.995,148.000 L248.595,148.000 L248.595,2.000 L298.195,2.000 C303.795,2.000 309.095,3.069 314.095,5.200 C319.095,7.334 323.426,10.269 327.095,14.000 C330.760,17.734 333.660,22.069 335.795,27.000 C337.926,31.934 338.995,37.269 338.995,43.000 C338.995,47.669 338.295,52.069 336.895,56.200 C335.495,60.334 333.526,64.100 330.995,67.500 ZM319.795,33.900 C318.595,31.034 316.926,28.534 314.795,26.400 C312.660,24.269 310.160,22.600 307.295,21.400 C304.426,20.200 301.395,19.600 298.195,19.600 L265.995,19.600 L265.995,66.200 L298.195,66.200 C301.395,66.200 304.426,65.600 307.295,64.400 C310.160,63.200 312.660,61.534 314.795,59.400 C316.926,57.269 318.595,54.800 319.795,52.000 C320.995,49.200 321.595,46.200 321.595,43.000 C321.595,39.800 320.995,36.769 319.795,33.900 ZM214.997,132.600 C210.197,137.400 204.563,141.200 198.097,144.000 C191.628,146.800 184.728,148.200 177.397,148.200 L127.797,147.600 L127.797,2.200 L177.397,2.200 C184.728,2.200 191.628,3.600 198.097,6.400 C204.563,9.200 210.197,13.000 214.997,17.800 C219.797,22.600 223.597,28.234 226.397,34.700 C229.197,41.169 230.597,48.069 230.597,55.400 L230.597,95.000 C230.597,102.334 229.197,109.234 226.397,115.700 C223.597,122.169 219.797,127.800 214.997,132.600 ZM213.197,55.400 C213.197,50.469 212.263,45.834 210.397,41.500 C208.528,37.169 205.963,33.400 202.697,30.200 C199.428,27.000 195.628,24.469 191.297,22.600 C186.963,20.734 182.328,19.800 177.397,19.800 L145.197,19.800 L145.197,130.800 L177.397,130.800 C182.328,130.800 186.963,129.869 191.297,128.000 C195.628,126.134 199.428,123.569 202.697,120.300 C205.963,117.034 208.528,113.234 210.397,108.900 C212.263,104.569 213.197,99.934 213.197,95.000 L213.197,55.400 ZM89.400,95.200 L17.800,95.200 L17.800,148.000 L0.200,148.000 L0.200,53.600 C0.200,46.269 1.600,39.369 4.400,32.900 C7.200,26.434 11.000,20.800 15.800,16.000 C20.600,11.200 26.231,7.400 32.700,4.600 C39.166,1.800 46.131,0.400 53.600,0.400 C60.931,0.400 67.831,1.800 74.300,4.600 C80.766,7.400 86.400,11.200 91.200,16.000 C96.000,20.800 99.800,26.434 102.600,32.900 C105.400,39.369 106.800,46.269 106.800,53.600 L106.800,148.000 L89.400,148.000 L89.400,95.200 ZM89.400,53.600 C89.400,48.669 88.466,44.034 86.600,39.700 C84.731,35.369 82.166,31.569 78.900,28.300 C75.631,25.034 71.831,22.469 67.500,20.600 C63.166,18.734 58.531,17.800 53.600,17.800 C48.666,17.800 44.031,18.734 39.700,20.600 C35.366,22.469 31.566,25.034 28.300,28.300 C25.031,31.569 22.466,35.369 20.600,39.700 C18.731,44.034 17.800,48.669 17.800,53.600 L17.800,77.800 L89.400,77.800 L89.400,53.600 Z"/>
</svg>