<?xml version="1.0" encoding="UTF-8" standalone="no"?>
<svg width="240px" height="80px" viewBox="0 0 240 80" version="1.1" xmlns="http://www.w3.org/2000/svg" xmlns:xlink="http://www.w3.org/1999/xlink">
<style type="text/css">
	.st0{fill:#FFFFFF;}
</style>
<title>Logo</title>
<desc>Created with Sketch.</desc>
<g id="Page-1">
	<g id="Logo">
		<path id="Fill-1" class="st0" d="M216.3,33.3c-12.7-4.1-16.2-7.7-16.2-11.5c0-5.4,6.2-8.5,15.3-8.5c3.5,0,6,0.3,7.8,0.7l-0.1,10.6
			l11.9,0.2l0.8-21.3c-5.6-1.4-14.3-3-21.5-3c-16.8,0-30,8.1-30,22.7c0,13.9,9.2,19,25.5,24.2c12.6,4,13.9,7,13.9,10.9
			c0,4.5-6.2,7.8-14.1,7.8c-8.1,0-17.1-2.8-22.6-5.1c-1.5,3.3-4.7,8.7-6.8,11.9c8.2,4.6,17.9,7,28.8,7c16.7,0,30.9-8,30.9-23.9
			C239.9,43.6,232.6,38.6,216.3,33.3"/>
		<path id="Fill-2" class="st0" d="M29,46.2L39.5,16l10.6,30.3H29L29,46.2z M51.3,1H18.9v9.7H27L6.8,68.8H0.3v9.7h27.2v-9.7h-6.4
			l3.7-10.6h29.5L58,68.8h-6v9.7h29.1v-9.7h-6.1L51.3,1L51.3,1z"/>
		<path id="Fill-3" class="st0" d="M167.6,52.2c-8.2-2.4-14.3-10.6-14.3-20.3c0-2.2,0.3-4.4,0.9-6.4c8.2,2.5,14.3,10.6,14.3,20.3
			C168.5,48,168.2,50.2,167.6,52.2L167.6,52.2z M162.2,14.3C162.2,14.3,162.2,14.3,162.2,14.3c-4-1.7-8.4-2.7-13.1-2.7
			c-1.2,0-2.4,0.1-3.5,0.2c-4.1,5.6-6.5,12.6-6.5,20.1c0,14.2,8.5,26.3,20.6,31.5c-3,2.1-6.7,3.4-10.6,3.4c-10.7,0-19.4-9.4-19.4-21
			c0-5,1.6-9.6,4.3-13.2c0-5.3,1.9-15,4.7-19.3c-13.6,4.4-23.2,17.5-23.2,32.5c0,6,1.5,11.5,4.1,16.4c-3.2,3.4-7.5,5.4-11.6,5.4
			c-5.6,0-9.6-4.4-9.6-11V26.1h17.3V14H98.4V1H82.8V14H71.4v12.1h11.4v31.9c0,16.4,11.3,21.8,22.2,21.8c9.2,0,16.6-4.4,20.8-9.5
			c6,5.9,14.3,9.5,23.3,9.5c18.3,0,33.7-15.2,33.7-34.2C182.7,31.6,174.3,19.5,162.2,14.3L162.2,14.3z"/>
	</g>
</g>
</svg>
