<?xml version="1.0" encoding="UTF-8" standalone="no"?>
<svg width="240px" height="80px" viewBox="0 0 240 80" version="1.1" xmlns="http://www.w3.org/2000/svg" xmlns:xlink="http://www.w3.org/1999/xlink">
    <title>Atos</title>
    <desc>Atos Logo Blue</desc>
    <defs></defs>
    <g id="Page-1" stroke="none" stroke-width="1" fill="none" fill-rule="evenodd">
        <g id="Logo" fill="rgb(0, 61, 104)">
            <path d="M216.303759,33.2763359 C203.640902,29.139542 200.059549,25.5658015 200.059549,21.7734351 C200.059549,16.4177099 206.301955,13.2470229 215.373233,13.2470229 C218.884211,13.2470229 221.41594,13.5743511 223.181353,13.9682443 L223.120602,24.5441221 L235.055639,24.7651908 L235.896541,3.49984733 C230.255639,2.12458015 221.587368,0.488549618 214.347068,0.488549618 C197.574135,0.488549618 184.335639,8.56366412 184.335639,23.1682443 C184.335639,37.0522137 193.530827,42.1880916 209.811128,47.3294656 C222.386165,51.3062595 223.708271,54.359084 223.708271,58.269313 C223.708271,62.7621374 217.531429,66.111145 209.626466,66.111145 C201.533835,66.111145 192.560602,63.3270229 187.050226,61.0015267 C185.557293,64.2552672 182.347669,69.7325191 180.226165,72.8629008 C188.386165,77.4192366 198.128722,79.9022901 209.063459,79.9022901 C225.76,79.9022901 239.924211,71.8723664 239.924211,55.960916 C239.924211,43.5975573 232.607519,38.5923664 216.303759,33.2763359" id="Fill-1"></path>
            <path d="M28.9702256,46.2448855 L39.5254135,15.968855 L50.1028571,46.2448855 L28.9702256,46.2448855 L28.9702256,46.2448855 Z M51.3467669,0.98259542 L18.9058647,0.98259542 L18.9058647,10.6454962 L27.0466165,10.6454962 L6.75669173,68.8317557 L0.274887218,68.8317557 L0.274887218,78.5001527 L27.4887218,78.5001527 L27.4887218,68.8317557 L21.0977444,68.8317557 L24.7945865,58.2229008 L54.2917293,58.2229008 L57.997594,68.8317557 L52.0108271,68.8317557 L52.0108271,78.5001527 L81.1290226,78.5001527 L81.1290226,68.8317557 L75.0574436,68.8317557 L51.3467669,0.98259542 L51.3467669,0.98259542 Z" id="Fill-2"></path>
            <path d="M167.578346,52.199084 C159.361805,49.7514504 153.316692,41.6177099 153.316692,31.9358779 C153.316692,29.6934351 153.646316,27.5334351 154.248421,25.510229 C162.467368,27.9615267 168.509474,36.0940458 168.509474,45.7777099 C168.509474,48.0152672 168.185865,50.1752672 167.578346,52.199084 L167.578346,52.199084 Z M162.17203,14.3016794 C162.17203,14.2949618 162.177444,14.290687 162.177444,14.290687 C158.154586,12.5593893 153.734135,11.6073282 149.086316,11.6073282 C147.893534,11.6073282 146.717594,11.6745038 145.55609,11.7935878 C141.48812,17.4406107 139.080301,24.4030534 139.080301,31.9358779 C139.080301,46.0903817 147.564511,58.2320611 159.642105,63.418626 C156.60391,65.5578626 152.981654,66.8177099 149.086316,66.8177099 C138.365113,66.8177099 129.663759,57.3960305 129.663759,45.7777099 C129.663759,40.7725191 131.288421,36.1703817 133.986165,32.5630534 C133.991579,27.2250382 135.858045,17.5401527 138.665865,13.2934351 C125.095338,17.7337405 115.429173,30.8024427 115.429173,45.7777099 C115.429173,51.7331298 116.934737,57.3196947 119.566917,62.2003053 C116.379549,65.6134351 112.07218,67.5535878 107.970526,67.5535878 C102.416842,67.5535878 98.4132331,63.129771 98.4132331,56.5087023 L98.4132331,26.1245802 L115.756992,26.1245802 L115.756992,14.0256489 L98.4132331,14.0256489 L98.4132331,0.957557252 L82.8403008,0.957557252 L82.8403008,14.0256489 L71.4063158,14.0256489 L71.4063158,26.1245802 L82.8403008,26.1245802 L82.8403008,58.060458 C82.8403008,74.4738931 94.0986466,79.8625954 105.029774,79.8625954 C114.188271,79.8625954 121.64812,75.4821374 125.781053,70.4116031 C131.829173,76.3108397 140.038496,79.9425954 149.086316,79.9425954 C167.419549,79.9425954 182.742857,64.7425954 182.742857,45.7777099 C182.742857,31.619542 174.257444,19.4821374 162.17203,14.3016794 L162.17203,14.3016794 Z" id="Fill-3"></path>
        </g>
    </g>
</svg>